<svg width="499" height="192" viewBox="0 0 499 192" fill="none" xmlns="http://www.w3.org/2000/svg">
<path fill-rule="evenodd" clip-rule="evenodd" d="M420.014 124.732V31.375H418.173C414.306 50.7093 402.706 74.4628 385.029 98.5845C375.822 111.106 364.958 123.811 352.621 136.148C343.782 144.987 334.575 153.089 325.553 160.454H330.156C359.065 160.454 385.029 134.123 385.029 110.922V116.077C385.029 145.171 402.521 159.902 428.853 159.902H498.824V124.916H420.014V124.732Z" fill="#121C26"/>
<path fill-rule="evenodd" clip-rule="evenodd" d="M401.968 5.77981C388.158 -8.03037 352.988 3.75431 315.056 32.1112H313.767H297.011C268.102 32.1112 242.138 58.4426 242.138 81.6437V80.9072C242.138 57.5219 215.807 31.3747 186.714 31.3747H104.957H90.4106L52.4787 69.3066L14.5467 31.3747H0V66.3604L29.0934 95.4539L0 124.731V159.717H14.5467L52.4787 121.785L90.4106 159.717H104.957H186.714C199.235 159.717 211.388 154.746 220.963 147.38C220.594 148.485 220.042 149.774 219.674 150.879C217.648 157.139 216.728 162.663 216.544 167.819C216.359 175.369 218.201 181.445 222.252 185.496C240.297 203.541 295.169 177.947 344.702 128.23C394.419 78.6975 420.013 23.8251 401.968 5.77981ZM104.957 95.638V124.731L75.8639 95.638L104.957 66.3604V95.638ZM391.472 16.2755C391.657 16.2755 391.657 16.2755 391.472 16.2755C391.657 16.4597 391.841 16.6438 392.025 17.0121C392.025 17.0121 392.025 17.0121 392.025 17.1962C392.577 18.301 393.13 20.3265 392.945 24.5616C392.577 30.6381 390.183 38.9242 385.396 49.0517C383.555 52.9185 381.345 57.1537 378.951 61.3888C369.744 45.7372 351.147 32.6636 331.076 32.2953C358.512 13.8818 382.081 6.70049 391.472 16.2755ZM298.484 67.097H309.9H317.266H328.682C345.991 67.097 350.41 81.6437 350.41 96.1904C350.41 97.6635 350.41 99.1366 350.226 100.61C350.226 101.346 350.042 102.083 350.042 102.819V103.003C350.042 103.74 349.858 104.477 349.674 105.029C349.674 105.213 349.674 105.397 349.674 105.397C349.489 106.134 349.489 106.686 349.305 107.239C349.305 107.423 349.305 107.607 349.121 107.791C348.937 108.343 348.753 109.08 348.753 109.632C348.753 109.816 348.569 110.001 348.569 110.185C348.385 110.737 348.201 111.29 348.016 111.842C348.016 111.842 348.016 112.026 347.832 112.026C347.28 113.315 346.727 114.42 346.175 115.709C346.175 115.709 346.175 115.709 346.175 115.893C345.991 116.261 345.807 116.629 345.438 116.998C345.254 117.366 345.07 117.55 344.886 117.918C344.702 118.287 344.334 118.471 344.15 118.839C343.965 119.207 343.597 119.392 343.413 119.76C343.229 119.944 342.861 120.312 342.676 120.496C342.308 120.68 342.124 121.049 341.756 121.233C341.572 121.417 341.203 121.601 340.835 121.785C340.467 121.969 340.099 122.338 339.73 122.522C339.362 122.706 339.178 122.89 338.81 123.074C338.441 123.258 338.073 123.442 337.521 123.627C337.152 123.811 336.968 123.811 336.6 123.995C336.048 124.179 335.679 124.363 335.127 124.363C334.759 124.547 334.39 124.547 334.206 124.547C333.654 124.731 333.101 124.731 332.365 124.916C331.997 124.916 331.812 125.1 331.444 125.1C330.523 125.284 329.603 125.284 328.498 125.284H326.104H317.082H309.716H298.3C280.991 125.284 276.572 110.737 276.572 96.1904C276.572 81.6437 281.175 67.097 298.484 67.097ZM242.691 116.629C242.691 116.445 242.691 116.445 242.691 116.261C242.507 116.261 242.691 116.445 242.691 116.629ZM242.323 114.052C242.323 113.867 242.323 113.683 242.323 113.499C242.323 113.683 242.323 113.867 242.323 114.052ZM185.24 124.731H139.943V95.638V66.3604H185.24C202.733 66.3604 207.153 80.9072 207.153 95.4539C207.153 110.001 202.733 124.731 185.24 124.731ZM240.849 176.474C236.614 176.842 234.405 176.105 233.484 175.553C233.484 175.553 233.484 175.553 233.3 175.553C232.932 175.369 232.747 175.185 232.563 175C223.909 166.346 229.065 146.091 243.796 121.785C248.951 137.989 264.971 153.457 283.937 158.612C277.492 162.663 271.232 166.162 265.339 168.924C255.212 173.712 246.926 176.105 240.849 176.474Z" fill="#121C26"/>
</svg>
